PathFileType	4	(X/Y/Z)	0_coords_data.trc
DataRate	CameraRate	NumFrames	NumMarkers	Units	OrigDataRate	OrigDataStartFrame	OrigNumFrames
30.0	30.0	8	21	m	30.0	61	71
Frame#	Time	THUMB_TIP	THUMB_IP	THUMB_MCP	THUMB_CMC	INDEX_TIP	INDEX_DIP	INDEX_PIP	INDEX_MCP	MIDDLE_TIP	MIDDLE_DIP	MIDDLE_PIP	MIDDLE_MCP	RING_TIP	RING_DIP	RING_PIP	RING_MCP	PINKY_TIP	PINKY_DIP	PINKY_PIP	PINKY_MCP	WRIST
X1	Y1	Z1	X2	Y2	Z2	X3	Y3	Z3	X4	Y4	Z4	X5	Y5	Z5	X6	Y6	Z6	X7	Y7	Z7	X8	Y8	Z8	X9	Y9	Z9	X10	Y10	Z10	X11	Y11	Z11	X12	Y12	Z12	X13	Y13	Z13	X14	Y14	Z14	X15	Y15	Z15	X16	Y16	Z16	X17	Y17	Z17	X18	Y18	Z18	X19	Y19	Z19	X20	Y20	Z20	X21	Y21	Z21
59	1.9999999999999911	0.5325943791837843	-0.030139825733003556	-0.1464429238076887	0.516930008578541	-0.03083868137306811	-0.12964592722091944	0.4891686532645503	-0.03656678261808932	-0.11678839996031648	0.47931211344414093	-0.030814143284877415	-0.07366478968159945	0.576401528213221	0.004045562998936103	-0.14899925105784279	0.559137494356311	0.00703761432222616	-0.1444165920190027	0.5353160539164874	0.009653879700718293	-0.13682027950296966	0.4958159912695397	0.012396111518407249	-0.12114031427516175	0.5927289877457964	0.01116894407998148	-0.13450151635306623	0.5757844628542156	0.013346378239480483	-0.1284897065856464	0.548660980951659	0.017854147140831667	-0.11882501315989802	0.5074502673189142	0.02262306377788703	-0.10223940382563723	0.6001044292182577	0.019388918494636975	-0.10767204352648008	0.5830350743706966	0.02085210486720912	-0.10205989503172647	0.5593151808696493	0.02384238033793984	-0.09508817473411563	0.5206343031572989	0.02188332784249858	-0.08348332028770794	0.5946601591407	0.0053589396066925366	-0.07914310019824944	0.5797944514733775	0.01147267041265665	-0.07325811666539972	0.5605384874206549	0.017625348267665042	-0.06758674799348774	0.5250593083644887	0.014661599337632003	-0.06181375078404577	0.4622830810018609	-0.023011742144276925	-0.051989820119430985
60	2.0333333333333243	0.5325889565725527	-0.030223208721551154	-0.1463670432352474	0.5168449282815062	-0.030949061277067313	-0.12964583779908412	0.48905693148100615	-0.03662889930629132	-0.11682450113798754	0.4792742700588475	-0.030823334366833155	-0.07369116192997888	0.5762712730159942	0.0037931634498211686	-0.14914826883458454	0.5590217230110129	0.006826906571217872	-0.14453855872449844	0.5352157802751004	0.009510825024653613	-0.13691730520622758	0.49574189376605793	0.012365932225579468	-0.12119163381380471	0.5926529212789752	0.010901167889907026	-0.13464612376075102	0.5757201994591148	0.013115882928220302	-0.1286147085810198	0.5486154289734766	0.017696491661143177	-0.11893178595627729	0.5074375098265435	0.02257316158052025	-0.10229613188960207	0.600084312223841	0.019093842817397677	-0.10785323990314621	0.583025763336045	0.020606030169396106	-0.10222125985567315	0.5593252606536774	0.023668369924849775	-0.0952149607737574	0.5206563920321926	0.021804531101404345	-0.08355453460767859	0.5945684883554304	0.00500508028679969	-0.07942132364854004	0.5797646832313662	0.011234867374637636	-0.07350210860860956	0.5605545209785406	0.017484806722229518	-0.0677819737001013	0.5250901315417142	0.0145918996095451	-0.06188353142179509	0.4622830810018609	-0.023011742144276925	-0.051989820119430985
61	2.0666666666666575	0.5327311847380455	-0.030215405351620372	-0.1461955708587218	0.5168904209597918	-0.03098684365598281	-0.12956803087638746	0.4890704426186042	-0.036666825272687165	-0.11681630103570456	0.4792742164653735	-0.030823518429020424	-0.07369113763560237	0.5762206011909765	0.0033623005186825816	-0.14902891495243148	0.5589785918270997	0.00650149439698311	-0.14446179606954374	0.535172507588795	0.00932609284367536	-0.13689199885603265	0.495692221185423	0.012363844509276856	-0.12121669521221579	0.5926059958230666	0.010491765063053382	-0.13461453671864088	0.5756802649430358	0.012784346338466146	-0.1285926013758794	0.5485871499078157	0.01751144707889285	-0.11894754117502093	0.5074244768998486	0.02255529476486695	-0.10232400748449999	0.6000738096802979	0.018658876847633232	-0.10788918578791867	0.5830227200204456	0.02028557375832818	-0.10226653529438612	0.559342902466473	0.02349320166384139	-0.09525530552847938	0.5206696387018805	0.02176307347308515	-0.08358885104402602	0.5944289241156102	0.0046460776422192485	-0.07959962188186509	0.5797047470142341	0.01102153675313522	-0.07363706120608582	0.560554570064654	0.017413889640035762	-0.06787333269329965	0.5250958795652164	0.014573951602984692	-0.061915189441345275	0.4622830810018609	-0.023011742144276925	-0.051989820119430985
63	2.100000000000002	0.5328470590856915	-0.03018476494837874	-0.1460332497517463	0.5169147981677978	-0.030994852305924248	-0.12949520813499776	0.489059539002647	-0.03668028300103088	-0.11682317535988956	0.4792642559775806	-0.030820433323030083	-0.07370004244714679	0.5761081834614407	0.003162320562981602	-0.14908224209638404	0.5588729783622315	0.006344007895854098	-0.14451884742749643	0.5350738126435305	0.009239040371246454	-0.1369539065116508	0.4956099834659662	0.012366705199256756	-0.12125486216596998	0.5925097468735935	0.010199856080415515	-0.13469704866002224	0.57559575214111	0.012552695995384222	-0.12866538831447466	0.5485205870083101	0.01738427390993469	-0.11902169411114949	0.5073830175867762	0.022543811279870374	-0.10237154464585296	0.5999997331939826	0.018283066793737812	-0.10805942251762962	0.5829652056925831	0.02002451969360275	-0.10242096398700101	0.5593128948525151	0.023363254989027582	-0.09537816500137802	0.5206522740375701	0.021739187325930165	-0.08365469979570106	0.5942681955944562	0.0043449355025630965	-0.0798441767276532	0.5796314558315463	0.010867285265841242	-0.07382547232568115	0.5605429560100719	0.01738637765104023	-0.06799944211302217	0.5250930257508977	0.014560855147921048	-0.06198260588423432	0.4622830810018608	-0.023011742144276925	-0.051989820119430985
64	2.1333333333333355	0.5329597674567892	-0.03014745015330933	-0.14589010179309403	0.5169498321140463	-0.03099325634422523	-0.12942903918436188	0.48906388591551486	-0.036683482638906306	-0.11682684376737468	0.4792548532701252	-0.03082098088978702	-0.07370719683232596	0.5760187109003133	0.0029353271530233593	-0.14909115182705035	0.5587897948060602	0.006170506566481659	-0.14454163928394015	0.5349951939811238	0.00914744941531842	-0.1369941485845948	0.49554214378397166	0.012368009777098177	-0.12128679632213102	0.592430949654759	0.009948360583350468	-0.13476592348632432	0.5755273272282004	0.012350950260853977	-0.12872480507150252	0.5484679074938994	0.017274329110066766	-0.11908334800578646	0.5073510050206114	0.022530353383878765	-0.10241234141244521	0.5999303839262192	0.01794388004354386	-0.10820645679025231	0.5829118874678837	0.019795229789584035	-0.10255461793767867	0.5592850773417329	0.02325355884885172	-0.09548398979156292	0.5206356768026572	0.02172070773462831	-0.0837113503495463	0.5941244193360804	0.004087710422999491	-0.08004416114887603	0.5795669204829985	0.01074097095812776	-0.0739767604373503	0.5605316448720855	0.017367862746446416	-0.06809844378693991	0.5250877153317645	0.014554199552967328	-0.06204083624151241	0.4622830810018608	-0.023011742144276925	-0.051989820119430985
65	2.1666666666666687	0.533070282811939	-0.03009530508112268	-0.14576532908981582	0.516994735516436	-0.0309758978429997	-0.1293701671345993	0.4890832034615896	-0.03667320077926395	-0.11682795370938176	0.4792457031101377	-0.030825218196976256	-0.07371282079120028	0.5759532819841846	0.0026565843802678346	-0.1490356542046306	0.5587311033607056	0.005966743579334244	-0.14451465768419175	0.5349385071229892	0.009047154745219999	-0.1370024499981588	0.49548845284219556	0.01237365480936603	-0.12130965838654056	0.5923688643852656	0.009735116176858738	-0.13481372899368388	0.5754741242904745	0.012178650498345656	-0.12876419205692807	0.5484283864619978	0.017184287288560918	-0.11912670194602526	0.5073270651598228	0.022520393325802135	-0.10244271919085857	0.5998649926095897	0.01764557745838191	-0.10832343274461848	0.5828617395234882	0.01960081361834809	-0.1026607093672372	0.5592581282626653	0.023167816632012506	-0.09556662704825719	0.520617878919256	0.02171363016344252	-0.08375403603723003	0.5939955233052631	0.0038683675981114884	-0.0802058656377494	0.5795089182781528	0.010636205565335732	-0.07409565745488861	0.5605181475899804	0.017351631959721114	-0.06817402794850691	0.5250778745642213	0.0145586663586319	-0.062085527146931496	0.4622830810018609	-0.023011742144276925	-0.051989820119430985
66	2.200000000000002	0.5331794594529555	-0.030020184464039756	-0.14565805799137177	0.5170486894162788	-0.03093661912233414	-0.12931919617235477	0.4891171939455199	-0.03664621833477666	-0.11682711717803823	0.4792364979529863	-0.030833200485855583	-0.07371713376130218	0.5759123114909316	0.002301484107153695	-0.14889556964879175	0.558698558623741	0.005718524145456372	-0.14442225436771378	0.5349054534180002	0.00893403913538715	-0.13696850088251727	0.49544865291072715	0.012389527242736786	-0.12132060678557177	0.5923226438113482	0.009557989059465588	-0.1348329903028928	0.575435195085372	0.012035360675918705	-0.12877686073017763	0.5484012635887332	0.017116844674294085	-0.11914594082555285	0.5073098226086588	0.022519398461963824	-0.10245900546424724	0.5998027600192851	0.017392431422310617	-0.10840349832680107	0.582813684175987	0.019444378815340446	-0.10273244781680718	0.5592306993625891	0.0231097314374612	-0.09561992390144736	0.5205969145326865	0.021723939600373776	-0.0837780032505962	0.5938792441980257	0.003681026774356111	-0.08033547300157112	0.5794550891492039	0.010546716515458132	-0.07418681009761613	0.5604998994560283	0.01733104950086184	-0.06822982859362475	0.5250614246335121	0.014578941054374073	-0.0621123248255297	0.4622830810018609	-0.023011742144276925	-0.051989820119430985
67	2.233333333333335	0.53328804052221	-0.02991394866446473	-0.1455673306397931	0.5171108355830387	-0.0308692634852622	-0.1292766764494539	0.4891655388494732	-0.036599322262394374	-0.11682489678212954	0.4792269281583881	-0.030844981764793	-0.07372035429565005	0.5758951154020056	0.0018456751514054348	-0.14865043696701769	0.5586931730617603	0.005411726402109185	-0.14424856711430378	0.5348974872974752	0.008804051170929528	-0.1368819325590775	0.4954224757324813	0.012421499396803926	-0.12131679124019729	0.5922913465146342	0.009414863572618226	-0.13481619074944862	0.5754095179528396	0.011920660880132772	-0.12875608808828604	0.5483857439224713	0.01707471035086383	-0.11913522735710119	0.5072978974335116	0.022532828426297002	-0.10245752550779602	0.5997428410287887	0.01718871018756607	-0.10843979627417943	0.5827665806424408	0.0193290195220982	-0.1027630314166722	0.5592014032462312	0.02308299281879278	-0.0956377189482342	0.5205708048892648	0.021757599672581063	-0.08377850153768307	0.593773068821052	0.0035199673437729118	-0.08043903073099656	0.5794028784433353	0.010466357256102343	-0.07425475262485759	0.5604742082174503	0.017299579508095575	-0.06826939247407637	0.5250362605791125	0.014619713864620465	-0.062116861424553194	0.4622830810018609	-0.023011742144276925	-0.051989820119430985
